<svg id="Layer_1" data-name="Layer 1" xmlns="http://www.w3.org/2000/svg" viewBox="0 0 202.21 248.13"><defs><style>.cls-1{fill:#fff;}</style></defs><title>8</title><path class="cls-1" d="M389,410q9.42,14.4,9.42,33.25,0,22.28-12.68,38.9t-35.64,25.7q-23,9.07-53.12,9.08T244,507.85q-22.8-9.08-35.3-25.7t-12.51-38.9q0-18.86,9.42-33.25t26.9-23.3A58.45,58.45,0,0,1,211.94,366q-7.2-12.49-7.2-28.61,0-20.91,11.66-36.33T249,277.2q20.89-8.4,48-8.4,27.4,0,48.49,8.4T378.16,301q11.65,15.42,11.65,36.33,0,16.11-7.19,28.61a57.67,57.67,0,0,1-20.91,20.74Q379.53,395.61,389,410ZM330,466.72q12.17-9.42,12.17-25.19t-12.17-25q-12.17-9.25-33.07-9.26-20.56,0-32.56,9.26t-12,25q0,16.13,12,25.36t32.56,9.26Q317.84,476.15,330,466.72ZM270,317.64q-10.11,8.06-10.11,22.11,0,13.71,9.94,21.59t27.08,7.88q17.13,0,27.41-7.88t10.29-21.59q0-14.06-10.29-22.11t-27.41-8.05Q280.14,309.59,270,317.64Z" transform="translate(-196.18 -268.8)"/></svg>