<?xml version="1.0" encoding="utf-8"?>
<!-- Generator: Adobe Illustrator 23.0.3, SVG Export Plug-In . SVG Version: 6.00 Build 0)  -->
<svg version="1.1" id="Layer_1" xmlns="http://www.w3.org/2000/svg" xmlns:xlink="http://www.w3.org/1999/xlink" x="0px" y="0px"
	 viewBox="0 0 595.3 841.9" style="enable-background:new 0 0 595.3 841.9;" xml:space="preserve">
<style type="text/css">
	.st0{fill:none;}
	.st1{fill:#FFFFFF;}
	.st2{font-family:'Montserrat-SemiBold';}
	.st3{font-size:55px;}
	.st4{font-family:'Montserrat-Light';}
	.st5{font-family:'Montserrat-Bold';}
	.st6{font-size:13px;}
	.st7{fill:#FFFFFF;stroke:#FFFFFF;stroke-width:0.5;stroke-miterlimit:10;}
	.st8{fill:#FBD768;}
	.st9{fill:#EF4F67;}
	.st10{fill:#F37E84;}
	.st11{fill:#F7A6A6;}
	.st12{fill:#24B6C8;}
	.st13{fill:#CFE8EC;}
	.st14{fill:#FFFAF0;}
</style>
<rect x="102.1" y="331.8" class="st0" width="391.2" height="63.7"/>
<text transform="matrix(1 0 0 1 112.5927 372.562)"><tspan x="0" y="0" class="st1 st2 st3">Delta</tspan><tspan x="152.2" y="0" class="st1 st4 st3">Hacks</tspan><tspan x="318.2" y="0" class="st1 st5 st3"> 8</tspan></text>
<rect x="102.1" y="388.5" class="st0" width="391.2" height="14"/>
<text transform="matrix(1 0 0 1 113.1317 398.1295)" class="st1 st2 st6">January 14th - January 17th, 2022 - McMaster University</text>
<line class="st7" x1="108.4" y1="408.5" x2="490.1" y2="408.5"/>
<g>
	<path class="st8" d="M281.7,165.6c0.1-0.4,0.4-0.2,0.6-0.2c6,0,12,0,17.9,0c4.5,0,9,0,13.6,0c0.5,0,0.8,0.1,1,0.6
		c9,15.6,17.9,31.1,26.9,46.7c6.8,11.7,13.5,23.4,20.3,35.1c6.8,11.8,13.6,23.5,20.4,35.3c0.1,0.2,0.1,0.4,0.4,0.5
		c0,0.1,0,0.2,0,0.3c-0.3,0.2-0.6,0.2-0.9,0.2c-9.6,0.2-19.1,0-28.7,0.2c-8.7,0.1-17.5-0.1-26.2,0.1c-8.5,0.2-16.9-0.1-25.4,0.1
		c-6.9,0.2-13.7,0-20.6,0.1c-0.4,0-0.9,0.2-1.2-0.2c-0.2-0.4,0.2-0.8,0.4-1.1c5.3-8.5,10.6-17.1,15.9-25.6c0.4-0.6,0.6-1.2,1.2-1.6
		c0.2-0.1,0.4-0.1,0.6-0.1c6.3,0,12.6,0,18.9,0c3.1,0,6.2,0,9.2,0c1.2,0,2.5,0.1,3.7-0.1c0.2-0.2,0-0.4-0.1-0.6
		c-1.8-3.3-3.6-6.6-5.3-9.9c-1.3-2.5-2.7-5-4-7.5c-1.7-3.2-3.4-6.3-5.1-9.5c-1.3-2.4-2.6-4.9-3.9-7.3c-1.7-3.1-3.4-6.3-5.1-9.4
		c-1.3-2.5-2.7-5-4-7.5c-2-3.7-4-7.5-6.1-11.2c-1.3-2.5-2.7-5-4-7.5c-2-3.7-4-7.5-6.1-11.2c-1.4-2.6-2.9-5.3-4.2-7.9
		C281.9,166.1,281.8,165.9,281.7,165.6z"/>
	<path class="st9" d="M297.4,256.3c-1.9,3-3.7,5.9-5.6,8.9c-3.9,6.2-7.7,12.4-11.6,18.7c-0.1,0.2-0.3,0.3-0.2,0.6c0.5,0,1.1,0,1.6,0
		c5.9,0,11.9,0,17.8,0c8.7-0.1,17.4,0,26.1-0.1c8.4-0.1,16.8,0,25.2-0.1c8.7-0.1,17.4,0,26.1-0.1c2,0,4,0,6-0.1c0,0.1,0,0.2,0,0.3
		c-0.4,1.2-1.1,2.3-1.8,3.4c-1.7,3.1-3.4,6.3-5.1,9.4c-2,3.7-4,7.4-6,11.1c-0.8,1.4-1.6,2.9-2.4,4.3c-0.1,0.3-0.3,0.6-0.7,0.5
		c-1.9,0-3.9,0-5.8,0c-12.7,0-25.3,0-38,0c-0.3,0-0.5-0.1-0.8,0.1c-30.8,0-61.6,0-92.4,0c0-0.1,0-0.1,0-0.2c0.1-0.6,0.4-1,0.7-1.5
		c3.1-5.1,6.1-10.2,9.1-15.3c4.1-6.8,8.1-13.6,12.1-20.4c3-5.1,6.1-10.2,9.1-15.3c4-6.8,8.1-13.6,12.1-20.4
		c2.3-3.9,4.6-7.7,6.9-11.6c0.6-1,0.7-1,1.3,0c2.7,4.7,5.4,9.4,8.2,14c2.6,4.4,5.2,8.9,7.8,13.3C297.4,255.8,297.6,256,297.4,256.3z
		"/>
	<path class="st1" d="M367.1,312.8c3.4-6.3,6.8-12.5,10.2-18.8c1.7-3.1,3.4-6.3,5.1-9.4c0.1-0.2,0.1-0.4,0.4-0.5
		c0,9.4,0,18.9,0,28.3c0,0.4-0.1,0.5-0.5,0.5c-5.1,0-10.1,0-15.2,0C367.1,312.9,367.1,312.9,367.1,312.8
		C367.1,312.8,367.1,312.8,367.1,312.8z"/>
	<path class="st10" d="M322.3,313c0.1-0.2,0.4-0.1,0.5-0.1c12.7,0,25.4,0,38.1,0c0.1,0,0.1,0,0.2,0c0,0,0,0.1,0,0.1c0,0,0,0,0,0
		C348.2,313,335.3,313,322.3,313z"/>
	<path class="st11" d="M361.1,313c0,0,0-0.1,0-0.1c2,0,4,0,6,0c0,0,0,0.1,0,0.1C365.1,313,363.1,313,361.1,313z"/>
	<path class="st12" d="M297.4,256.3c-5.5-9.5-11.1-18.9-16.6-28.4c-0.1-0.1-0.1-0.2-0.3-0.3c-3.6,6-7.2,12.1-10.7,18.1
		c-10.6,17.9-21.2,35.7-31.8,53.6c-2.6,4.4-5.2,8.8-7.8,13.2c-0.1,0.1-0.2,0.2-0.2,0.3c-1.7-2.9-3.5-5.8-5.2-8.8
		c-3.7-6.3-7.4-12.5-11.2-18.8c-0.3-0.5-0.3-0.8,0-1.3c6.4-11,12.7-22,19-33c6.3-11,12.6-21.9,19-32.9c5.6-9.6,11.1-19.3,16.7-28.9
		c4.5-7.8,9-15.7,13.6-23.5c1.1,1.9,2.1,3.9,3.2,5.8c11.6,21.4,23.1,42.9,34.6,64.3c3.6,6.6,7.2,13.3,10.7,19.9
		c0.1,0.1,0.1,0.3,0.2,0.4c-1.3,0.1-2.7,0-4.1,0.1c-2.9,0-5.7,0-8.6,0c-0.2,0-0.5,0-0.7,0C310.5,256.2,304,256.2,297.4,256.3z"/>
	<path class="st13" d="M317.1,256.2c0.1,0,0.2-0.1,0.3-0.1c3,0,6,0,9,0c0,0,0.1,0,0,0.1c0,0,0,0,0,0
		C323.3,256.2,320.2,256.2,317.1,256.2z"/>
	<path class="st14" d="M326.4,256.2C326.4,256.2,326.4,256.1,326.4,256.2c1.4-0.1,2.7-0.1,4.1-0.1c-0.3,0.2-0.7,0.1-1,0.1
		C328.4,256.2,327.4,256.2,326.4,256.2z"/>
</g>
</svg>
