<svg xmlns="http://www.w3.org/2000/svg" width="79.99904" height="64.79395" viewBox="0 0 79.99904 64.79395">
  <defs>
    <style>
      .\35 a974f68-9926-4829-856f-2c41d83e7fe0 {
        fill: #fff;
      }
    </style>
  </defs>
  <title>TShirt</title>
  <g id="e2ca9a63-bece-41fa-bc0d-95f05f294562" data-name="Layer 2">
    <g id="dbfb16b7-317f-42ae-845d-9829620800ff" data-name="2">
      <g>
        <path class="5a974f68-9926-4829-856f-2c41d83e7fe0" d="M62.19933,25.9994v1.16837q-.00006,17.70551-.00031,35.411c-.00005,1.83742-.38018,2.21531-2.19365,2.21512q-20.01492-.0021-40.02984,0c-1.77152.00019-2.17545-.392-2.17554-2.14756q-.001-17.74828-.00047-35.49656V25.99432c-.37945.14117-.66122.238-.93691.34982q-4.03621,1.63738-8.07106,3.27811A1.5793,1.5793,0,0,1,6.36183,28.604Q3.3022,21.087.25625,13.5645c-.53134-1.31218-.2633-1.92494,1.05742-2.467Q14.5081,5.68273,27.70405.27155c1.31816-.5405,1.88332-.30113,2.54093.96189,2.055,3.94692,5.25886,6.202,9.76332,6.19848,4.50514-.00347,7.70372-2.26583,9.753-6.2155.64862-1.25014,1.22125-1.484,2.55051-.93872Q65.50718,5.69021,78.70125,11.1059c1.31285.53892,1.5725,1.149,1.03522,2.47538q-3.04686,7.52212-6.10676,15.039c-.50076,1.2297-1.18832,1.50289-2.4392.9955q-4.03621-1.63721-8.07039-3.27946C62.86193,26.23153,62.59666,26.14416,62.19933,25.9994ZM8.677,26.45067c.33994-.12857.60285-.22193.86116-.32663,3.007-1.21876,6.00953-2.44887,9.02178-3.65459a1.48542,1.48542,0,0,1,2.21269,1.46713c.01287.3416.00384.684.00384,1.0261q0,17.82977-.00018,35.65954v1.16645H59.22266v-1.2504q-.00017-17.78706-.00018-35.57411c0-.37056-.01454-.742.006-1.11151a1.4694,1.4694,0,0,1,2.12933-1.41318c.80018.29735,1.58575.63416,2.37693.95557,2.49862,1.01506,4.99679,2.03119,7.57809,3.08062,1.778-4.37285,3.52861-8.67851,5.30131-13.03841-8.24058-3.3787-16.39636-6.72261-24.54474-10.06349A13.87743,13.87743,0,0,1,27.92965,3.373L3.38328,13.43938Z"/>
        <path class="5a974f68-9926-4829-856f-2c41d83e7fe0" d="M8.677,26.45067,3.38328,13.43938,27.92965,3.373a13.87743,13.87743,0,0,0,24.13976.00072c8.14838,3.34088,16.30416,6.68479,24.54474,10.06349-1.7727,4.3599-3.52335,8.66556-5.30131,13.03841-2.5813-1.04943-5.07947-2.06556-7.57809-3.08062-.79118-.32141-1.57675-.65822-2.37693-.95557a1.4694,1.4694,0,0,0-2.12933,1.41318c-.02055.36947-.006.74095-.006,1.11151q-.00009,17.78706.00018,35.57411v1.2504H20.77625V60.62222q.00014-17.82977.00018-35.65954c0-.34205.009-.6845-.00384-1.0261a1.48542,1.48542,0,0,0-2.21269-1.46713c-3.01225,1.20572-6.01474,2.43583-9.02178,3.65459C9.27981,26.22874,9.0169,26.3221,8.677,26.45067Z"/>
      </g>
    </g>
  </g>
</svg>
